<?xml version="1.0" encoding="UTF-8"?>
<svg width="40pt" height="40pt" version="1.1" viewBox="0 0 700 700" xmlns="http://www.w3.org/2000/svg" xmlns:xlink="http://www.w3.org/1999/xlink">
 <g>
  <path d="m593.04 167.44c-3.6211-5.0312-9.4805-7.9609-15.68-7.8398h-366.24l-17.922-50.398v-0.003906c-1.9922-6.3164-5.9414-11.836-11.277-15.758-5.3359-3.9258-11.777-6.0547-18.402-6.082h-45.918c-7.2695-0.30859-13.414 5.332-13.723 12.602-0.30859 7.2656 5.332 13.41 12.602 13.719h47.039c2.125-0.16016 4.0391 1.2773 4.4805 3.3594l92.961 268.24c1.7031 5.0781 4.582 9.6836 8.3984 13.438-6.25 7.9883-9.6055 17.859-9.5195 28-0.054688 13.977 6.2578 27.219 17.152 35.977 10.895 8.7539 25.184 12.074 38.82 9.0117 13.637-3.0586 25.141-12.164 31.25-24.734 6.1094-12.57 6.1602-27.238 0.13672-39.852h106.96c-5.6523 12.008-5.8242 25.875-0.47656 38.02 5.3516 12.145 15.699 21.379 28.375 25.312 12.676 3.9336 26.434 2.1875 37.723-4.793 11.285-6.9805 18.996-18.508 21.141-31.605 2.1406-13.098-1.4961-26.484-9.9727-36.695-8.4766-10.211-20.961-16.25-34.23-16.559h-206.08c-2.125 0.15625-4.0391-1.2773-4.4805-3.3594l-14.559-48.16v-0.55859l259.84-0.003906c3.9844 0.12109 7.9023-1.0742 11.141-3.4023 3.2422-2.3281 5.6211-5.6562 6.7773-9.4766l45.922-133.28c2.3438-5.0312 1.4609-10.98-2.2422-15.117zm-358.4 58.238-14.559-40.32c-0.55859-1.1211 0.55859-2.2383 1.6797-2.2383h80.078c5.082-0.050782 9.5078 3.4453 10.641 8.3984l8.9609 39.762c0 1.1211-0.55859 2.2383-1.6797 2.2383h-75.602c-4.457-0.47266-8.1992-3.5586-9.5195-7.8398zm70.559 218.96c-4.75 0-9.3086-1.8867-12.672-5.25-3.3594-3.3594-5.2461-7.918-5.2461-12.672 0-4.75 1.8867-9.3086 5.2461-12.672 3.3633-3.3594 7.9219-5.2461 12.672-5.2461 4.7539 0 9.3125 1.8867 12.672 5.2461 3.3594 3.3633 5.25 7.9219 5.25 12.672 0.058594 4.7734-1.8086 9.3672-5.1836 12.738-3.3711 3.375-7.9648 5.2422-12.738 5.1836zm190.4 0h0.003906c-4.7539 0-9.3125-1.8867-12.672-5.25-3.3633-3.3594-5.25-7.918-5.25-12.672 0-4.75 1.8867-9.3086 5.25-12.672 3.3594-3.3594 7.918-5.2461 12.672-5.2461 4.75 0 9.3086 1.8867 12.668 5.2461 3.3633 3.3633 5.25 7.9219 5.25 12.672-0.027343 4.7461-1.9258 9.2852-5.2812 12.641s-7.8945 5.25-12.637 5.2812zm-224.56-138.88c-4.7031-0.019531-8.918-2.9062-10.641-7.2812l-14.559-40.32c-0.55859-1.1211 0.55859-2.2383 1.6797-2.2383h71.121c5.0781-0.050781 9.5078 3.4453 10.641 8.3984l9.5195 41.441zm164.64-10.641c-0.83594 5.5195-5.6133 9.582-11.199 9.5195h-53.762c-5.0781 0.046875-9.5078-3.4492-10.641-8.4023l-8.9609-38.078c0-1.1211 0.55859-2.2383 1.6797-2.2383h87.363c0.90234 0.054687 1.625 0.77344 1.6797 1.6797zm11.762-71.121c-0.83984 5.5234-5.6172 9.582-11.203 9.5195h-81.758c-5.082 0.050781-9.5078-3.4453-10.641-8.3984l-8.9609-38.641c0-1.1211 0.55859-2.2383 1.6797-2.2383l115.36-0.003907c0.90234 0.058594 1.625 0.77734 1.6797 1.6836zm97.441 34.719-14 39.762h-0.003906c-1.6523 4.4297-5.9102 7.3438-10.641 7.2812h-63.277l6.1602-40.32c0.83594-5.5234 5.6133-9.5859 11.199-9.5195h69.441c0.53125 0.20703 0.94922 0.625 1.1641 1.1562 0.21094 0.53125 0.19531 1.125-0.046875 1.6406zm25.762-73.359-14 41.441h-0.003906c-1.6562 4.4297-5.9141 7.3398-10.641 7.2773h-75.602c-0.90234-0.054687-1.625-0.77344-1.6797-1.6797l6.1602-39.199c0.83984-5.5195 5.6172-9.582 11.199-9.5195h82.883c1.1172-0.55859 1.6797 0.55859 1.6797 1.6797z"/>
  <use x="70" y="644" xlink:href="#w"/>
  <use x="90.550781" y="644" xlink:href="#a"/>
  <use x="104.359375" y="644" xlink:href="#d"/>
  <use x="123.347656" y="644" xlink:href="#b"/>
  <use x="142.242188" y="644" xlink:href="#c"/>
  <use x="155.628906" y="644" xlink:href="#d"/>
  <use x="174.617188" y="644" xlink:href="#k"/>
  <use x="204.410156" y="644" xlink:href="#j"/>
  <use x="224.453125" y="644" xlink:href="#g"/>
  <use x="252.453125" y="644" xlink:href="#i"/>
  <use x="274.148438" y="644" xlink:href="#a"/>
  <use x="287.957031" y="644" xlink:href="#h"/>
  <use x="297.554688" y="644" xlink:href="#v"/>
  <use x="314.21875" y="644" xlink:href="#c"/>
  <use x="327.605469" y="644" xlink:href="#h"/>
  <use x="337.203125" y="644" xlink:href="#f"/>
  <use x="357.136719" y="644" xlink:href="#b"/>
  <use x="385.78125" y="644" xlink:href="#u"/>
  <use x="413.640625" y="644" xlink:href="#b"/>
  <use x="432.539062" y="644" xlink:href="#a"/>
  <use x="446.34375" y="644" xlink:href="#t"/>
  <use x="466.390625" y="644" xlink:href="#b"/>
  <use x="485.28125" y="644" xlink:href="#a"/>
  <use x="499.09375" y="644" xlink:href="#g"/>
  <use x="517.34375" y="644" xlink:href="#b"/>
  <use x="536.238281" y="644" xlink:href="#f"/>
  <use x="70" y="672" xlink:href="#s"/>
  <use x="82.183594" y="672" xlink:href="#a"/>
  <use x="95.992188" y="672" xlink:href="#e"/>
  <use x="115.226562" y="672" xlink:href="#r"/>
  <use x="154.152344" y="672" xlink:href="#c"/>
  <use x="167.535156" y="672" xlink:href="#q"/>
  <use x="187.46875" y="672" xlink:href="#d"/>
  <use x="216.207031" y="672" xlink:href="#p"/>
  <use x="239.640625" y="672" xlink:href="#e"/>
  <use x="258.878906" y="672" xlink:href="#o"/>
  <use x="278.8125" y="672" xlink:href="#f"/>
  <use x="308.492188" y="672" xlink:href="#n"/>
  <use x="329.015625" y="672" xlink:href="#a"/>
  <use x="342.820312" y="672" xlink:href="#e"/>
  <use x="362.058594" y="672" xlink:href="#m"/>
  <use x="371.65625" y="672" xlink:href="#d"/>
  <use x="390.648438" y="672" xlink:href="#l"/>
  <use x="407.242188" y="672" xlink:href="#c"/>
 </g>
</svg>
