<svg viewBox="0 0 300 300" fill="none" xmlns="http://www.w3.org/2000/svg">
  <path d="M262.5 56.25h-225a18.7503 18.7503 0 0 0-13.2583 5.4917A18.7503 18.7503 0 0 0 18.75 75v150c0 4.973 1.9754 9.742 5.4917 13.258A18.7476 18.7476 0 0 0 37.5 243.75h225c4.973 0 9.742-1.975 13.258-5.492A18.7459 18.7459 0 0 0 281.25 225V75c0-4.9728-1.975-9.7419-5.492-13.2583A18.7485 18.7485 0 0 0 262.5 56.25ZM241.875 75 150 138.562 58.125 75h183.75ZM37.5 225V83.5312l107.156 74.1558A9.376 9.376 0 0 0 150 159.36c1.91 0 3.774-.584 5.344-1.673L262.5 83.5312V225h-225Z" fill="#fff"/>
</svg>
