<svg viewBox="0 0 300 300" fill="none" xmlns="http://www.w3.org/2000/svg">
  <path d="M272.775 92.8875a12.4996 12.4996 0 0 0-4.475-3.958 12.4958 12.4958 0 0 0-5.8-1.4295H91.6625l-14.425-34.625A24.925 24.925 0 0 0 54.1625 37.5H25v25h29.1625l59.2995 142.313a12.506 12.506 0 0 0 4.606 5.589A12.5013 12.5013 0 0 0 125 212.5h100c5.212 0 9.875-3.238 11.713-8.1l37.5-100a12.5 12.5 0 0 0 .697-5.9331 12.4983 12.4983 0 0 0-2.135-5.5794ZM216.337 187.5h-83l-31.25-75h142.375l-28.125 75ZM131.25 262.5c10.355 0 18.75-8.395 18.75-18.75S141.605 225 131.25 225s-18.75 8.395-18.75 18.75 8.395 18.75 18.75 18.75ZM218.75 262.5c10.355 0 18.75-8.395 18.75-18.75S229.105 225 218.75 225 200 233.395 200 243.75s8.395 18.75 18.75 18.75Z" fill="#fff"/>
</svg>
