<?xml version="1.0" encoding="UTF-8"?>
<svg width="20pt" height="20pt" version="1.1" viewBox="0 0 700 700" xmlns="http://www.w3.org/2000/svg">
 <path d="m439.6 0c-106.4 0-190.4 84-190.4 190.4 0 39.199 11.199 75.602 33.602 106.4-28-8.3984-64.398-2.8008-86.801 19.602l-100.8 100.8c-33.602 33.602-33.602 86.801 0 117.6 33.602 33.602 86.801 33.602 117.6 0l100.8-100.8c22.398-22.398 30.801-56 19.602-86.801 30.801 19.602 64.398 30.801 103.6 30.801 103.6 0 190.4-84 190.4-190.4-0.003906-103.6-84.004-187.6-187.6-187.6zm-162.4 394.8-100.8 100.8c-11.199 11.199-28 11.199-39.199 0-11.199-11.199-11.199-28 0-39.199l100.8-100.8c11.199-11.199 28-11.199 39.199 0 11.199 11.199 11.199 28 0 39.199zm162.4-72.801c-72.801 0-134.4-58.801-134.4-134.4 0-72.801 58.801-134.4 134.4-134.4 72.797 2.7969 134.4 61.598 134.4 137.2 0 72.801-61.602 131.6-134.4 131.6z"/>
</svg>
