<?xml version="1.0" encoding="UTF-8"?>
<svg width="70pt" height="70pt" version="1.1" viewBox="0 0 700 700" xmlns="http://www.w3.org/2000/svg" xmlns:xlink="http://www.w3.org/1999/xlink">
 <g>
  <path d="m573.66 428.18c-0.015624-14.684-5.8594-28.758-16.25-39.133-10.387-10.375-24.469-16.199-39.152-16.195-14.684 0.003906-28.762 5.8398-39.145 16.223-10.383 10.383-16.215 24.461-16.223 39.145-0.003906 14.68 5.8203 28.766 16.195 39.152 10.375 10.391 24.453 16.234 39.133 16.25 14.699-0.015626 28.793-5.8633 39.188-16.254 10.395-10.395 16.238-24.488 16.254-39.188zm-77.223 0c0.015625-5.7852 2.332-11.332 6.4375-15.406 4.1094-4.0742 9.6719-6.3516 15.457-6.3203 5.7891 0.03125 11.324 2.3633 15.391 6.4805 4.0664 4.1172 6.3242 9.6836 6.2812 15.473-0.046874 5.7852-2.3906 11.316-6.5195 15.371-4.1289 4.0547-9.7031 6.3008-15.488 6.2422-5.7422-0.074219-11.227-2.4062-15.262-6.4961-4.0352-4.0859-6.2969-9.5977-6.2969-15.344z"/>
  <path d="m160.72 76.383v33.602h63.562l57.23 238.89h285.6l48.551-197.68h-346.86l-17.977-75.039zm412.05 108.42-32.371 130.48h-232.34l-31.246-130.48z"/>
  <path d="m317.18 483.62c14.684-0.015626 28.758-5.8594 39.133-16.25 10.375-10.387 16.199-24.473 16.195-39.152-0.003907-14.684-5.8398-28.762-16.223-39.145-10.379-10.383-24.461-16.219-39.141-16.223-14.684-0.003906-28.766 5.8203-39.156 16.195-10.391 10.375-16.234 24.449-16.25 39.133 0.015624 14.699 5.8633 28.793 16.258 39.188 10.391 10.391 24.484 16.238 39.184 16.254zm0-77.223v-0.003906c5.7734 0.015625 11.309 2.3242 15.383 6.4141 4.0742 4.0938 6.3555 9.6328 6.3438 15.41-0.007812 5.7734-2.3086 11.309-6.3984 15.383-4.0898 4.0781-9.6289 6.3672-15.402 6.3633-5.7734-0.007813-11.309-2.3047-15.391-6.3867-4.082-4.0859-6.375-9.625-6.375-15.398 0.015625-5.7812 2.3242-11.324 6.418-15.406 4.0938-4.0859 9.6406-6.3789 15.422-6.3789z"/>
  <path d="m84.336 205.35h130.87v33.602h-130.87z"/>
  <path d="m129.14 261.35h102.87v33.602h-102.87z"/>
  <path d="m89.938 317.35h158.87v33.602h-158.87z"/>
  <use x="70" y="644" xlink:href="#t"/>
  <use x="90.550781" y="644" xlink:href="#d"/>
  <use x="104.359375" y="644" xlink:href="#a"/>
  <use x="123.347656" y="644" xlink:href="#k"/>
  <use x="142.242188" y="644" xlink:href="#c"/>
  <use x="155.628906" y="644" xlink:href="#a"/>
  <use x="174.617188" y="644" xlink:href="#j"/>
  <use x="204.410156" y="644" xlink:href="#i"/>
  <use x="224.453125" y="644" xlink:href="#h"/>
  <use x="252.453125" y="644" xlink:href="#g"/>
  <use x="271.578125" y="644" xlink:href="#b"/>
  <use x="290.8125" y="644" xlink:href="#f"/>
  <use x="307.414062" y="644" xlink:href="#e"/>
  <use x="327.34375" y="644" xlink:href="#s"/>
  <use x="70" y="672" xlink:href="#r"/>
  <use x="82.183594" y="672" xlink:href="#d"/>
  <use x="95.992188" y="672" xlink:href="#b"/>
  <use x="115.226562" y="672" xlink:href="#q"/>
  <use x="154.152344" y="672" xlink:href="#c"/>
  <use x="167.535156" y="672" xlink:href="#p"/>
  <use x="187.46875" y="672" xlink:href="#a"/>
  <use x="216.207031" y="672" xlink:href="#o"/>
  <use x="239.640625" y="672" xlink:href="#b"/>
  <use x="258.878906" y="672" xlink:href="#e"/>
  <use x="278.8125" y="672" xlink:href="#n"/>
  <use x="308.492188" y="672" xlink:href="#m"/>
  <use x="329.015625" y="672" xlink:href="#d"/>
  <use x="342.820312" y="672" xlink:href="#b"/>
  <use x="362.058594" y="672" xlink:href="#l"/>
  <use x="371.65625" y="672" xlink:href="#a"/>
  <use x="390.648438" y="672" xlink:href="#f"/>
  <use x="407.242188" y="672" xlink:href="#c"/>
 </g>
</svg>
