<?xml version="1.0" encoding="UTF-8"?>
<svg width="70pt" height="70pt" version="1.1" viewBox="0 0 700 700" xmlns="http://www.w3.org/2000/svg" xmlns:xlink="http://www.w3.org/1999/xlink">
 <g>
  <path d="m484.4 95.199v-67.199h-336v436.8h67.199v67.199h336l0.003906-436.8zm-302.4 336v-369.6h268.8v33.602l-235.2-0.003906v336zm336 67.199h-268.8v-369.6h268.8z"/>
  <path d="m299.6 179.2h33.602v33.602h-33.602z"/>
  <path d="m366.8 179.2h100.8v33.602h-100.8z"/>
  <path d="m299.6 257.6h33.602v33.602h-33.602z"/>
  <path d="m366.8 257.6h100.8v33.602h-100.8z"/>
  <path d="m299.6 336h33.602v33.602h-33.602z"/>
  <path d="m366.8 336h100.8v33.602h-100.8z"/>
  <path d="m299.6 414.4h33.602v33.602h-33.602z"/>
  <path d="m366.8 414.4h100.8v33.602h-100.8z"/>
  <use x="70" y="644" xlink:href="#y"/>
  <use x="90.550781" y="644" xlink:href="#c"/>
  <use x="104.359375" y="644" xlink:href="#a"/>
  <use x="123.347656" y="644" xlink:href="#b"/>
  <use x="142.242188" y="644" xlink:href="#e"/>
  <use x="155.628906" y="644" xlink:href="#a"/>
  <use x="174.617188" y="644" xlink:href="#j"/>
  <use x="204.410156" y="644" xlink:href="#i"/>
  <use x="224.453125" y="644" xlink:href="#h"/>
  <use x="252.453125" y="644" xlink:href="#g"/>
  <use x="274.011719" y="644" xlink:href="#b"/>
  <use x="292.90625" y="644" xlink:href="#f"/>
  <use x="305.085938" y="644" xlink:href="#b"/>
  <use x="323.984375" y="644" xlink:href="#a"/>
  <use x="342.972656" y="644" xlink:href="#x"/>
  <use x="362.320312" y="644" xlink:href="#w"/>
  <use x="381.445312" y="644" xlink:href="#b"/>
  <use x="400.339844" y="644" xlink:href="#c"/>
  <use x="414.148438" y="644" xlink:href="#v"/>
  <use x="423.746094" y="644" xlink:href="#b"/>
  <use x="442.640625" y="644" xlink:href="#u"/>
  <use x="469.054688" y="644" xlink:href="#t"/>
  <use x="486.898437" y="644" xlink:href="#a"/>
  <use x="505.886719" y="644" xlink:href="#s"/>
  <use x="524.78125" y="644" xlink:href="#d"/>
  <use x="70" y="672" xlink:href="#f"/>
  <use x="82.183594" y="672" xlink:href="#c"/>
  <use x="95.992188" y="672" xlink:href="#d"/>
  <use x="115.226562" y="672" xlink:href="#r"/>
  <use x="154.152344" y="672" xlink:href="#e"/>
  <use x="167.535156" y="672" xlink:href="#q"/>
  <use x="187.46875" y="672" xlink:href="#a"/>
  <use x="216.207031" y="672" xlink:href="#p"/>
  <use x="239.640625" y="672" xlink:href="#d"/>
  <use x="258.878906" y="672" xlink:href="#o"/>
  <use x="278.8125" y="672" xlink:href="#n"/>
  <use x="308.492188" y="672" xlink:href="#m"/>
  <use x="329.015625" y="672" xlink:href="#c"/>
  <use x="342.820312" y="672" xlink:href="#d"/>
  <use x="362.058594" y="672" xlink:href="#l"/>
  <use x="371.65625" y="672" xlink:href="#a"/>
  <use x="390.648438" y="672" xlink:href="#k"/>
  <use x="407.242188" y="672" xlink:href="#e"/>
 </g>
</svg>
