<?xml version="1.0" encoding="UTF-8"?>
<svg width="20pt" height="20pt" version="1.1" viewBox="0 0 700 700" xmlns="http://www.w3.org/2000/svg">
 <path d="m554.87 347.2-134.87-137.2-137.2-135.1c-9.668-9.6562-22.785-15.062-36.449-15.02-13.664 0.042969-26.746 5.5352-36.352 15.254l-64.867 64.867c-9.6172 9.625-15.02 22.676-15.02 36.285 0 13.605 5.4023 26.656 15.02 36.281l272.07 272.54c9.625 9.6172 22.676 15.02 36.285 15.02 13.605 0 26.656-5.4023 36.281-15.02l65.102-65.102c9.6875-9.6367 15.137-22.734 15.137-36.398 0-13.664-5.4492-26.766-15.137-36.402zm-32.898 39.668-65.102 65.102v-0.003906c-1.8164 1.7812-4.7188 1.7812-6.5352 0l-272.3-272.3c-1.7812-1.8164-1.7812-4.7188 0-6.5352l65.098-65.098c0.79688-0.98828 2-1.5625 3.2656-1.5625 1.2695 0 2.4727 0.57422 3.2695 1.5625l15.633 15.633-18.668 18.668v-0.003907c-4.3945 4.4258-6.8477 10.414-6.8281 16.652 0.023437 6.2344 2.5195 12.207 6.9453 16.598 4.4258 4.3945 10.414 6.8516 16.648 6.8281 6.2344-0.019531 12.207-2.5195 16.602-6.9453l18.668-18.668 18.898 18.898-18.668 18.668v0.003907c-4.9375 4.2266-7.8867 10.324-8.1367 16.82s2.2188 12.805 6.8164 17.402c4.5977 4.5938 10.902 7.0664 17.398 6.8164 6.4961-0.25 12.594-3.2031 16.824-8.1406l18.668-18.668 18.898 18.898-18.668 18.668v0.003907c-4.4844 4.3633-7.0547 10.328-7.1445 16.586-0.085938 6.2578 2.3164 12.293 6.6797 16.781 4.3633 4.4844 10.328 7.0547 16.586 7.1406 6.2578 0.089844 12.293-2.3125 16.781-6.6758l18.668-18.668 18.898 18.898-18.668 18.668c-5.8789 5.9219-8.1484 14.523-5.9609 22.574 2.1836 8.0469 8.5 14.32 16.566 16.449 8.0625 2.1289 16.652-0.20312 22.527-6.1211l18.668-18.668 18.898 18.898-18.668 18.668h0.003906c-4.9414 4.2305-7.8906 10.328-8.1406 16.824-0.25 6.4961 2.2188 12.801 6.8164 17.398 4.5977 4.5977 10.902 7.0664 17.398 6.8164 6.5-0.25 12.594-3.1992 16.824-8.1367l18.668-18.668 15.633 15.633c1.6992 1.7227 1.8008 4.457 0.23047 6.3008z"/>
</svg>
