<?xml version="1.0" encoding="UTF-8"?>
<svg width="70pt" height="70pt" version="1.1" viewBox="0 0 700 700" xmlns="http://www.w3.org/2000/svg" xmlns:xlink="http://www.w3.org/1999/xlink">
 <g>
  <path d="m245.8 391.5h313.5c2.3125 0 4.2852-1.6758 4.6602-3.9648l37.973-233.86c0.21875-1.3672-0.16797-2.7539-1.0625-3.8125-0.89453-1.0547-2.2109-1.6562-3.5938-1.6562h-338.13l-14.734-84.672c-0.39844-2.2578-2.3516-3.9102-4.6484-3.9102l-137.06 0.003906c-2.6055 0-4.7148 2.1094-4.7148 4.7188v47.465c0 2.6094 2.1094 4.7148 4.7148 4.7148h93.168l18.641 107.09 26.621 163.92c0.37109 2.293 2.3477 3.9648 4.6602 3.9648zm-41.305-280.5c-0.39844-2.2578-2.3516-3.9102-4.6484-3.9102l-92.414 0.003906v-38.031h128.36l14.734 84.672c0.39844 2.2578 2.3516 3.9102 4.6484 3.9102h336.55l-36.434 224.43h-305.48l-25.984-160.02z"/>
  <path d="m285.24 401.06c-27.383 0-49.668 22.27-49.668 49.648 0 27.383 22.281 49.668 49.668 49.668 27.383 0 49.668-22.281 49.668-49.668-0.003906-27.379-22.277-49.648-49.668-49.648zm0 89.879c-22.18 0-40.23-18.055-40.23-40.23 0-22.172 18.047-40.215 40.23-40.215 22.18 0 40.23 18.043 40.23 40.215 0 22.176-18.043 40.23-40.23 40.23z"/>
  <path d="m517.84 401.06c-27.379 0-49.648 22.27-49.648 49.648 0 27.383 22.27 49.668 49.648 49.668 27.383 0 49.668-22.281 49.668-49.668-0.003907-27.379-22.285-49.648-49.668-49.648zm0 89.879c-22.176 0-40.215-18.055-40.215-40.23 0-22.172 18.039-40.215 40.215-40.215 22.18 0 40.23 18.043 40.23 40.215 0 22.176-18.051 40.23-40.23 40.23z"/>
  <use x="70" y="644" xlink:href="#u"/>
  <use x="90.550781" y="644" xlink:href="#c"/>
  <use x="104.359375" y="644" xlink:href="#a"/>
  <use x="123.347656" y="644" xlink:href="#e"/>
  <use x="142.242188" y="644" xlink:href="#b"/>
  <use x="155.628906" y="644" xlink:href="#a"/>
  <use x="174.617188" y="644" xlink:href="#k"/>
  <use x="204.410156" y="644" xlink:href="#j"/>
  <use x="224.453125" y="644" xlink:href="#i"/>
  <use x="252.453125" y="644" xlink:href="#f"/>
  <use x="274.121094" y="644" xlink:href="#t"/>
  <use x="283.71875" y="644" xlink:href="#a"/>
  <use x="302.710938" y="644" xlink:href="#h"/>
  <use x="322.640625" y="644" xlink:href="#e"/>
  <use x="351.285156" y="644" xlink:href="#f"/>
  <use x="372.953125" y="644" xlink:href="#c"/>
  <use x="386.765625" y="644" xlink:href="#b"/>
  <use x="400.148438" y="644" xlink:href="#a"/>
  <use x="419.140625" y="644" xlink:href="#g"/>
  <use x="448.3125" y="644" xlink:href="#d"/>
  <use x="467.550781" y="644" xlink:href="#s"/>
  <use x="485.804687" y="644" xlink:href="#e"/>
  <use x="70" y="672" xlink:href="#r"/>
  <use x="82.183594" y="672" xlink:href="#c"/>
  <use x="95.992188" y="672" xlink:href="#d"/>
  <use x="115.226562" y="672" xlink:href="#g"/>
  <use x="154.152344" y="672" xlink:href="#b"/>
  <use x="167.535156" y="672" xlink:href="#q"/>
  <use x="187.46875" y="672" xlink:href="#a"/>
  <use x="216.207031" y="672" xlink:href="#p"/>
  <use x="239.640625" y="672" xlink:href="#d"/>
  <use x="258.878906" y="672" xlink:href="#o"/>
  <use x="278.8125" y="672" xlink:href="#h"/>
  <use x="308.492188" y="672" xlink:href="#n"/>
  <use x="329.015625" y="672" xlink:href="#c"/>
  <use x="342.820312" y="672" xlink:href="#d"/>
  <use x="362.058594" y="672" xlink:href="#m"/>
  <use x="371.65625" y="672" xlink:href="#a"/>
  <use x="390.648438" y="672" xlink:href="#l"/>
  <use x="407.242188" y="672" xlink:href="#b"/>
 </g>
</svg>
