<?xml version="1.0" encoding="UTF-8"?>
<svg width="700pt" height="700pt" version="1.1" viewBox="0 0 700 700" xmlns="http://www.w3.org/2000/svg" xmlns:xlink="http://www.w3.org/1999/xlink">
 <g>
  <path d="m218.59 463.75 39.582-73.496c-74.129-101.77-148.25-203.53-222.38-305.29 60.941 126.26 121.88 252.55 182.8 378.81zm322.61-25.762 41.566 65.164c1.6953 2.6406-1.3984 5.6914-4.0195 4.0859l-64.668-39.402-178.8 59.676c-1.2852 0.51953-2.8008 0.089844-3.5898-1.1289l-42.066-64.102-17.25 2.6641c-0.49609 0.066406-0.99219 0.023438-1.5117-0.15625l-18.832-7.293-32.312 15.422c-1.4688 0.69922-3.25 0.066407-3.9531-1.3984l-8.9414-18.516-72.41-67.781-50.918-12.734c-0.67578-0.15625-1.2422-0.56641-1.625-1.082l-81.148-93.973c-1.0625-1.2422-0.92578-3.0938 0.29297-4.1562 1.082-0.94922 2.6875-0.94922 3.7695-0.089844l131.7 105.06 22.984-23.348-143.27-296.89c-1.5352-3.2305 2.957-5.8945 5.0352-3.0273l195.04 267.74 79.906-0.47266 59.723-40.484c0.15625-0.13672 0.31641-0.25 0.49609-0.33984l69.207-43.578c0.11328-0.066406 0.22656-0.13672 0.33984-0.17969 89.301-44.66 181.2-98.422 269.55-146.43 2.9336-1.8047 6.0977 2.1445 3.6367 4.6055-35.09 34.996-67.559 75.031-98.176 118.65-30.617 43.668-59.359 90.902-86.953 140.29-0.20312 0.38281-0.45312 0.69922-0.78906 0.99219l-72.074 57.961-25.629 27.637 122.95-4.9453c1.2656 0 2.1445 0.49609 2.7539 1.5117zm-22.082 26.012 51.82 31.566-32.785-51.414zm-174.95 54.305 168.62-56.266 18.582-19.395-121.59 4.8984zm39.355-180.75 284.59-224.73-238.64 129.65zm283.28-216.17-287.09 226.7 3.6133 3.6133 126.24-1.1289c27.48-49.109 56.062-96.051 86.5-139.43 22.465-32.016 45.949-62.117 70.719-89.773zm-231.84 290.32-59.746-59.746-93.07 88.328c4.3359 6.6602 44.277 67.309 52.406 79.684l100.41-108.29zm-45.77-54.145 50.082 50.102 63.559-51.121-113.66 1.0156zm-103.16 99.305-8.1953-12.465c-0.58594 0.54297-1.3984 1.4688-2.1016 1.8047l-16.391 7.8125 12.871 4.9883 13.797-2.1211zm89.074-115.47 44.977-93.051-59.34 37.348v29.512l14.359 26.191zm-149.81 122.27 47.484-22.648 98.805-93.75-16.391-29.895c-0.25-0.45312-0.35938-0.92578-0.35938-1.4219v-26.305l-55.477 37.617-35.066 64.035-0.066406 0.13672-38.926 72.254zm35.945-79.164 30.844-56.312-71.555 0.42969zm-120.66-2.0312c0.046875 0.17969 0.046875 0.33984 0.046875 0.51953l59.066 55.273-37.504-77.719zm-114.63-84.828 59.859 69.316 39.402 9.8438-99.258-79.184z"/>
  <use y="561.605469" xlink:href="#v"/>
  <use x="8.285156" y="561.605469" xlink:href="#c"/>
  <use x="13.851562" y="561.605469" xlink:href="#a"/>
  <use x="21.507812" y="561.605469" xlink:href="#e"/>
  <use x="29.128906" y="561.605469" xlink:href="#b"/>
  <use x="34.523438" y="561.605469" xlink:href="#a"/>
  <use x="42.179688" y="561.605469" xlink:href="#m"/>
  <use x="54.195312" y="561.605469" xlink:href="#l"/>
  <use x="62.273438" y="561.605469" xlink:href="#k"/>
  <use x="73.5625" y="561.605469" xlink:href="#j"/>
  <use x="82.167969" y="561.605469" xlink:href="#i"/>
  <use x="86.039062" y="561.605469" xlink:href="#u"/>
  <use x="92.757812" y="561.605469" xlink:href="#h"/>
  <use x="104.523438" y="561.605469" xlink:href="#i"/>
  <use x="108.390625" y="561.605469" xlink:href="#g"/>
  <use x="112.261719" y="561.605469" xlink:href="#g"/>
  <use x="116.132812" y="561.605469" xlink:href="#e"/>
  <use x="123.75" y="561.605469" xlink:href="#f"/>
  <use y="572.894531" xlink:href="#t"/>
  <use x="4.910156" y="572.894531" xlink:href="#c"/>
  <use x="10.480469" y="572.894531" xlink:href="#d"/>
  <use x="18.234375" y="572.894531" xlink:href="#h"/>
  <use x="33.929688" y="572.894531" xlink:href="#b"/>
  <use x="39.324219" y="572.894531" xlink:href="#f"/>
  <use x="47.363281" y="572.894531" xlink:href="#a"/>
  <use x="58.949219" y="572.894531" xlink:href="#s"/>
  <use x="68.398438" y="572.894531" xlink:href="#d"/>
  <use x="76.15625" y="572.894531" xlink:href="#r"/>
  <use x="84.191406" y="572.894531" xlink:href="#q"/>
  <use x="96.160156" y="572.894531" xlink:href="#p"/>
  <use x="104.433594" y="572.894531" xlink:href="#c"/>
  <use x="110" y="572.894531" xlink:href="#d"/>
  <use x="117.757812" y="572.894531" xlink:href="#o"/>
  <use x="121.628906" y="572.894531" xlink:href="#a"/>
  <use x="129.285156" y="572.894531" xlink:href="#n"/>
  <use x="135.976562" y="572.894531" xlink:href="#b"/>
 </g>
</svg>
