<?xml version="1.0" encoding="UTF-8"?>
<svg width="700pt" height="700pt" version="1.1" viewBox="0 0 700 700" xmlns="http://www.w3.org/2000/svg" xmlns:xlink="http://www.w3.org/1999/xlink">
 <g>
  <path d="m569.82 143.09-44.457-51.895c-0.078126-0.085937-0.17188-0.125-0.25391-0.19531-0.054687-0.050781-0.078125-0.125-0.12891-0.16797-0.054687-0.050781-0.14062-0.050781-0.20703-0.09375-0.26172-0.17969-0.54688-0.30078-0.85156-0.37891-0.11719-0.027344-0.21875-0.078125-0.33984-0.09375-0.41406-0.050781-0.83984-0.023437-1.25 0.11719-0.023438 0.003907-0.035157 0-0.054688 0.003907l-99.398 35.941-107.08-54.562c-0.039063-0.015625-0.089844-0.015625-0.125-0.035156-0.19141-0.089844-0.38672-0.125-0.59375-0.16797-0.14453-0.035156-0.29688-0.074219-0.44922-0.078125-0.19141-0.003906-0.375 0.035156-0.57031 0.066406-0.12891 0.023438-0.26172 0-0.38672 0.042969l-174.86 56.5c-1.0977 0.35156-1.8633 1.3398-1.9375 2.4883-0.074218 1.1484 0.56641 2.2227 1.6055 2.7109l14.203 6.6523-14.129 4.3242c-1.1328 0.34766-1.9258 1.3711-1.9805 2.5586-0.050781 1.1797 0.64844 2.2734 1.7461 2.7148l229.68 92.793-78.23 171.28c-0.042969 0.10156-0.039062 0.20703-0.074219 0.30859-0.0625 0.17969-0.10547 0.35156-0.125 0.54297-0.023437 0.19141-0.015625 0.37109 0 0.56641 0.011719 0.10547-0.023437 0.20312 0 0.3125l16.406 80.551c0.26953 1.3047 1.418 2.2383 2.7422 2.2383h0.089843c1.3594-0.042969 2.4961-1.0586 2.6836-2.4141l15.094-108.38 182.62-166.56c0.066406-0.0625 0.089844-0.14062 0.14062-0.20703 0.089843-0.089843 0.14062-0.18359 0.21875-0.28516 0.21875-0.32422 0.37109-0.66797 0.44922-1.043 0.011718-0.066407 0.066406-0.11719 0.078124-0.18359l9.5273-75.254 47.84 3.8906c0.066406 0.003907 0.14062 0.003907 0.21875 0.003907 1.0547 0 2.0117-0.58203 2.4922-1.5273 0.51562-0.99609 0.375-2.2188-0.35547-3.082zm-49.941-45.879-14.594 115.28-77.621-81.938zm-127.56 144.19-71.246-143.57 98.285 33.371zm-66.008-147.7-5.9766-13.328 66.473 33.867zm-179.02 37.547 165.71-53.535 6.0703 13.535-2.625-0.89063c-0.085937-0.027343-0.15625-0.011718-0.24219-0.027343-0.23438-0.0625-0.46484-0.10156-0.70703-0.09375-0.15234 0-0.29297 0.027343-0.42969 0.054687-0.11719 0.023438-0.23047 0.003906-0.34766 0.042969l-154.06 47.176zm166.8-34.871 73.328 147.77-239.68-96.824zm75 154.49-56.352 92.332 2.0391-14.617 38.422-84.133zm-80.879 227.89-12.957-63.637 31.395-68.734-1.3008 9.3398c0 0.035156-0.003907 0.0625-0.011719 0.089844zm22.59-121.64 64.637-105.91c0.40234-0.46484 0.67578-1.0352 0.67578-1.7148 0-0.023437-0.011719-0.039062-0.011719-0.0625l28.078-114.41 79.145 83.547-175.52 160.09zm189.52-218.86 4.8906-38.613 35.918 41.934z"/>
  <use x="70" y="644" xlink:href="#w"/>
  <use x="90.550781" y="644" xlink:href="#a"/>
  <use x="104.359375" y="644" xlink:href="#b"/>
  <use x="123.347656" y="644" xlink:href="#e"/>
  <use x="142.242188" y="644" xlink:href="#d"/>
  <use x="155.628906" y="644" xlink:href="#b"/>
  <use x="174.617188" y="644" xlink:href="#j"/>
  <use x="204.410156" y="644" xlink:href="#f"/>
  <use x="224.453125" y="644" xlink:href="#i"/>
  <use x="252.453125" y="644" xlink:href="#h"/>
  <use x="270.292969" y="644" xlink:href="#v"/>
  <use x="279.890625" y="644" xlink:href="#g"/>
  <use x="299.824219" y="644" xlink:href="#u"/>
  <use x="309.421875" y="644" xlink:href="#t"/>
  <use x="326.085938" y="644" xlink:href="#e"/>
  <use x="354.730469" y="644" xlink:href="#s"/>
  <use x="365.148438" y="644" xlink:href="#f"/>
  <use x="385.191406" y="644" xlink:href="#c"/>
  <use x="404.429688" y="644" xlink:href="#a"/>
  <use x="418.234375" y="644" xlink:href="#a"/>
  <use x="432.046875" y="644" xlink:href="#e"/>
  <use x="70" y="672" xlink:href="#r"/>
  <use x="82.183594" y="672" xlink:href="#a"/>
  <use x="95.992188" y="672" xlink:href="#c"/>
  <use x="115.226562" y="672" xlink:href="#q"/>
  <use x="154.152344" y="672" xlink:href="#d"/>
  <use x="167.535156" y="672" xlink:href="#p"/>
  <use x="187.46875" y="672" xlink:href="#b"/>
  <use x="216.207031" y="672" xlink:href="#o"/>
  <use x="239.640625" y="672" xlink:href="#c"/>
  <use x="258.878906" y="672" xlink:href="#g"/>
  <use x="278.8125" y="672" xlink:href="#n"/>
  <use x="308.492188" y="672" xlink:href="#m"/>
  <use x="329.015625" y="672" xlink:href="#a"/>
  <use x="342.820312" y="672" xlink:href="#c"/>
  <use x="362.058594" y="672" xlink:href="#l"/>
  <use x="371.65625" y="672" xlink:href="#b"/>
  <use x="390.648438" y="672" xlink:href="#k"/>
  <use x="407.242188" y="672" xlink:href="#d"/>
 </g>
</svg>
