<?xml version="1.0" encoding="UTF-8"?>
<svg width="70pt" height="70pt" version="1.1" viewBox="0 0 700 700" xmlns="http://www.w3.org/2000/svg" xmlns:xlink="http://www.w3.org/1999/xlink">
 <g>
  <path d="m507.57 386.89h-315.13c-5.4805 0-9.9297 4.4414-9.9297 9.9297v32.227c0 5.4883 4.4453 9.9297 9.9297 9.9297h315.13c5.4805 0 9.9297-4.4414 9.9297-9.9297v-32.227c0-5.4883-4.4453-9.9297-9.9297-9.9297zm-9.9297 32.227h-295.27v-12.371h295.28z"/>
  <path d="m182.5 231.63v32.227c0 5.4883 4.4453 9.9297 9.9297 9.9297h315.13c5.4805 0 9.9297-4.4414 9.9297-9.9297v-32.227c0-5.4883-4.4453-9.9297-9.9297-9.9297h-315.13c-5.4844 0-9.9297 4.4414-9.9297 9.9297zm19.859 9.9297h295.28v12.371h-295.28z"/>
  <path d="m552.16 178.41c-2.1445-1.8945-4.9961-2.7734-7.8164-2.4023l-1.2109 0.16406c-0.78906 0.10547-1.5742 0.25391-2.3984 0.25391l-105.73-0.003906c-15.379 0-27.887-12.516-27.887-27.906l-0.003907-105.75c0-0.80469 0.12891-1.5781 0.23438-2.3633l0.16406-1.2891c0.33984-2.8125-0.54297-5.6445-2.4297-7.7656-1.875-2.1367-4.582-3.3477-7.4219-3.3477h-222.8c-16.754 0-30.387 13.629-30.387 30.387v443.25c0 16.742 13.629 30.367 30.387 30.367h350.29c16.75 0 30.379-13.625 30.379-30.367l0.003906-315.78c0-2.8477-1.2266-5.5664-3.3672-7.4414zm-16.492 323.22c0 5.7969-4.7148 10.512-10.523 10.512l-350.29-0.003906c-5.8086 0-10.527-4.7109-10.527-10.512v-443.24c0-5.8086 4.7227-10.527 10.527-10.527h212.4v100.65c0 26.336 21.422 47.762 47.746 47.762h100.66z"/>
  <path d="m507.57 304.29h-315.13c-5.4805 0-9.9297 4.4414-9.9297 9.9297v32.227c0 5.4883 4.4453 9.9297 9.9297 9.9297h315.13c5.4805 0 9.9297-4.4414 9.9297-9.9297v-32.227c0-5.4883-4.4453-9.9297-9.9297-9.9297zm-9.9297 32.234h-295.27v-12.371h295.28z"/>
  <path d="m435 163.29h105.74c7.7773 0 14.078-5.875 14.719-13.547 0.35937-2.9805-0.64453-6.0156-2.832-8.1914l-110.61-110.64c-1.8633-1.8594-4.3906-2.9062-7.0195-2.9062-8.1406 0-14.766 6.625-14.766 14.766l-0.003906 105.75c0 8.1484 6.6211 14.777 14.77 14.777zm5.0898-106.23 86.352 86.375h-86.352z"/>
  <use x="70" y="644" xlink:href="#u"/>
  <use x="90.550781" y="644" xlink:href="#c"/>
  <use x="104.359375" y="644" xlink:href="#a"/>
  <use x="123.347656" y="644" xlink:href="#e"/>
  <use x="142.242188" y="644" xlink:href="#b"/>
  <use x="155.628906" y="644" xlink:href="#a"/>
  <use x="174.617188" y="644" xlink:href="#k"/>
  <use x="204.410156" y="644" xlink:href="#j"/>
  <use x="224.453125" y="644" xlink:href="#i"/>
  <use x="252.453125" y="644" xlink:href="#f"/>
  <use x="274.121094" y="644" xlink:href="#t"/>
  <use x="283.71875" y="644" xlink:href="#a"/>
  <use x="302.710938" y="644" xlink:href="#h"/>
  <use x="322.640625" y="644" xlink:href="#e"/>
  <use x="351.285156" y="644" xlink:href="#f"/>
  <use x="372.953125" y="644" xlink:href="#c"/>
  <use x="386.765625" y="644" xlink:href="#b"/>
  <use x="400.148438" y="644" xlink:href="#a"/>
  <use x="419.140625" y="644" xlink:href="#g"/>
  <use x="448.3125" y="644" xlink:href="#d"/>
  <use x="467.550781" y="644" xlink:href="#s"/>
  <use x="485.804687" y="644" xlink:href="#e"/>
  <use x="70" y="672" xlink:href="#r"/>
  <use x="82.183594" y="672" xlink:href="#c"/>
  <use x="95.992188" y="672" xlink:href="#d"/>
  <use x="115.226562" y="672" xlink:href="#g"/>
  <use x="154.152344" y="672" xlink:href="#b"/>
  <use x="167.535156" y="672" xlink:href="#q"/>
  <use x="187.46875" y="672" xlink:href="#a"/>
  <use x="216.207031" y="672" xlink:href="#p"/>
  <use x="239.640625" y="672" xlink:href="#d"/>
  <use x="258.878906" y="672" xlink:href="#o"/>
  <use x="278.8125" y="672" xlink:href="#h"/>
  <use x="308.492188" y="672" xlink:href="#n"/>
  <use x="329.015625" y="672" xlink:href="#c"/>
  <use x="342.820312" y="672" xlink:href="#d"/>
  <use x="362.058594" y="672" xlink:href="#m"/>
  <use x="371.65625" y="672" xlink:href="#a"/>
  <use x="390.648438" y="672" xlink:href="#l"/>
  <use x="407.242188" y="672" xlink:href="#b"/>
 </g>
</svg>
