<svg viewBox="0 0 300 353" fill="none" xmlns="http://www.w3.org/2000/svg">
  <path d="M176.962 9.5c6.379.0012 12.515 2.0195 17.436 5.6497 4.912 3.6241 8.301 8.6159 9.756 14.1149v.0031l8.501 32.0825H87.3399l8.4878-32.0856c1.4552-5.4988 4.8433-10.4909 9.7553-14.1149 4.921-3.6302 11.057-5.6485 17.436-5.6497h53.942" stroke="#000" stroke-width="19" stroke-linecap="round" stroke-linejoin="round"/>
  <mask id="a" style="mask-type:alpha" maskUnits="userSpaceOnUse" x="0" y="51" width="300" height="302">
    <path d="M215.625 51.4251H262.5c9.946 0 19.484 3.7323 26.516 10.3757C296.049 68.4443 300 77.4549 300 86.8502V317.113c0 9.396-3.951 18.406-10.984 25.05-7.032 6.643-16.57 10.375-26.516 10.375h-225c-9.9456 0-19.4839-3.732-26.5165-10.375C3.9509 335.519 0 326.509 0 317.113V86.8502c0-9.3953 3.9509-18.4059 10.9835-25.0494C18.0161 55.1574 27.5544 51.4251 37.5 51.4251h46.875" fill="#fff"/>
  </mask>
  <g mask="url(#a)">
    <path d="M215.625 32.4251c-10.493 0-19 8.5066-19 19s8.507 19 19 19v-38Zm46.875 19v-19 19ZM0 317.113h-19H0ZM37.5 51.4251v-19 19Zm46.875 19c10.4934 0 19-8.5066 19-19s-8.5066-19-19-19v38Zm131.25 0H262.5v-38h-46.875v38Zm46.875 0c5.244 0 10.072 1.9781 13.469 5.1874l26.095-27.6233c-10.668-10.0777-24.917-15.5641-39.564-15.5641v38Zm13.469 5.1874C279.33 78.7872 281 82.8542 281 86.8502h38c0-14.7947-6.231-28.7487-16.936-38.861l-26.095 27.6233ZM281 86.8502V317.113h38V86.8502h-38Zm0 230.2628c0 3.996-1.67 8.063-5.031 11.238l26.095 27.623C312.769 345.862 319 331.908 319 317.113h-38Zm-5.031 11.238c-3.397 3.209-8.225 5.187-13.469 5.187v38c14.647 0 28.896-5.486 39.564-15.564l-26.095-27.623Zm-13.469 5.187h-225v38h225v-38Zm-225 0c-5.2444 0-10.0717-1.978-13.469-5.187l-26.095 27.623c10.668 10.078 24.9172 15.564 39.564 15.564v-38Zm-13.469-5.187C20.6704 325.176 19 321.109 19 317.113h-38c0 14.795 6.2314 28.749 16.936 38.861l26.095-27.623ZM19 317.113V86.8502h-38V317.113h38Zm0-230.2628c0-3.996 1.6704-8.063 5.031-11.2377L-2.064 47.9892C-12.7686 58.1015-19 72.0555-19 86.8502h38Zm5.031-11.2377c3.3973-3.2093 8.2246-5.1874 13.469-5.1874v-38c-14.6468 0-28.896 5.4864-39.564 15.5641l26.095 27.6233ZM37.5 70.4251h46.875v-38H37.5v38Z" fill="#000"/>
    <path d="M93.75 242.976h112.5-112.5Zm0-70.851h112.5-112.5Z" stroke="#000" stroke-width="19" stroke-linecap="round"/>
  </g>
</svg>
