<svg viewBox="0 0 300 299" fill="none" xmlns="http://www.w3.org/2000/svg">
  <path d="m33.2658 64.1861 1.161-.4644L146.327 18.9656a9.8732 9.8732 0 0 1 7.346-.0002L33.2658 64.1861Zm0 0 1.1611.4641 45.075 18.0188.1856.0742.1857-.0742L195.261 36.5252l1.161-.4642-1.161-.4643-41.588-16.6311L33.2658 64.1861Zm71.4732 27.6606-1.161.4644 1.161.4641 45.075 18.0188.186.074.186-.074 115.387-46.1438 1.161-.4643-1.161-.4642-45.075-18.0188-.186.4643-.185-.4642-115.388 46.1437ZM281.75 78.0422v-.7385l-.686.2743-121.875 48.75-.314.126v149.614l.686-.274 121.875-48.75.314-.126V78.0422ZM141.125 126.773v-.338l-.314-.126L18.9356 77.5779l-.6856-.2741V226.937l.3143.126 121.8747 48.75.186-.465h.5V126.773ZM160.258 2.4752l133.668 53.4749a8.8696 8.8696 0 0 1 4.049 3.264 8.867 8.867 0 0 1 1.525 4.972V226.598a18.2485 18.2485 0 0 1-3.143 10.228 18.25 18.25 0 0 1-8.336 6.708l.185.464-.185-.464-134.719 53.888h-.001a8.8748 8.8748 0 0 1-6.602 0h-.001L11.9982 243.534h-.0007a18.2484 18.2484 0 0 1-8.3468-6.704A18.2514 18.2514 0 0 1 .5 226.598V64.186a8.8751 8.8751 0 0 1 5.5735-8.2359L139.742 2.4752a27.6245 27.6245 0 0 1 20.516 0Z" fill="#000" stroke="#000"/>
</svg>
