<svg viewBox="0 0 300 300" fill="none" xmlns="http://www.w3.org/2000/svg">
  <path d="M300 300h-21.429v-53.571c-.017-14.203-5.666-27.819-15.709-37.862-10.043-10.043-23.659-15.693-37.862-15.71v-21.428c19.884.022 38.948 7.931 53.008 21.992 14.06 14.06 21.969 33.123 21.992 53.008V300Zm-85.714 0h-21.429v-53.571c-.017-14.203-5.666-27.819-15.709-37.862-10.043-10.043-23.659-15.693-37.862-15.71H75c-14.2028.017-27.819 5.667-37.8619 15.71a53.6357 53.6357 0 0 0-15.7095 37.862V300H0v-53.571c.0227-19.885 7.9317-38.948 21.9921-53.008C36.0524 179.36 55.1157 171.451 75 171.429h64.286c19.884.022 38.947 7.931 53.008 21.992 14.06 14.06 21.969 33.123 21.992 53.008V300ZM192.857 0v21.4286a53.5728 53.5728 0 0 1 37.881 15.6907C240.784 47.1659 246.429 60.792 246.429 75c0 14.208-5.645 27.834-15.691 37.881a53.5746 53.5746 0 0 1-37.881 15.69V150c19.891 0 38.968-7.902 53.033-21.967 14.065-14.065 21.967-33.1418 21.967-53.033 0-19.8912-7.902-38.9678-21.967-53.033C231.825 7.9018 212.748 0 192.857 0Zm-85.714 21.4286a53.574 53.574 0 0 1 29.763 9.0284 53.57 53.57 0 0 1 19.73 24.0421 53.5716 53.5716 0 0 1-11.612 58.3819 53.5757 53.5757 0 0 1-27.43 14.661 53.5769 53.5769 0 0 1-30.952-3.048 53.5789 53.5789 0 0 1-24.0422-19.731 53.5714 53.5714 0 0 1 44.5432-83.3344Zm0-21.4286a75 75 0 1 0 75 75c0-19.8912-7.902-38.9678-21.967-53.033C146.111 7.9018 127.034 0 107.143 0Z" fill="#000"/>
</svg>
