<?xml version="1.0" encoding="UTF-8"?>
<svg width="20pt" height="20pt" version="1.1" viewBox="0 0 700 700" xmlns="http://www.w3.org/2000/svg">
 <path d="m536.67 93.332v-23.332c0-12.832-10.5-23.332-23.332-23.332h-326.67c-12.832 0-23.332 10.5-23.332 23.332v46.668h-11.668c-19.297 0-35 15.703-35 35s15.703 35 35 35h11.664v46.668l-11.664-0.003907c-19.297 0-35 15.703-35 35s15.703 35 35 35h11.664v46.668h-11.664c-19.297 0-35 15.703-35 35s15.703 35 35 35h11.664v46.668c0 12.832 10.5 23.332 23.332 23.332h326.67c12.832 0 23.332-10.5 23.332-23.332v-23.332h46.668v-350zm-338.34 303.34h-46.668c-6.4141 0-11.664-5.25-11.664-11.668s5.25-11.668 11.668-11.668h46.668c6.4375 0 11.664 5.25 11.664 11.668s-5.2266 11.668-11.668 11.668zm0-116.67h-46.668c-6.4141 0-11.664-5.2266-11.664-11.668 0-6.4375 5.25-11.664 11.668-11.664h46.668c6.4375 0 11.664 5.2266 11.664 11.664 0 6.4414-5.2266 11.668-11.668 11.668zm0-116.67h-46.668c-6.4141 0-11.664-5.2266-11.664-11.664 0-6.4414 5.25-11.668 11.668-11.668h46.668c6.4375 0 11.664 5.2266 11.664 11.668 0 6.4375-5.2266 11.664-11.668 11.664zm245 46.668h-186.66v-93.332h186.67zm116.67 210h-23.332v-58.332h23.332zm0-81.668h-23.332v-58.332h23.332zm0-81.664h-23.332v-58.336h23.332zm0-81.668h-23.332v-58.332h23.332z"/>
</svg>
