<?xml version="1.0" encoding="UTF-8"?>
<svg width="100pt" height="100pt" version="1.1" viewBox="0 0 700 700" xmlns="http://www.w3.org/2000/svg" xmlns:xlink="http://www.w3.org/1999/xlink">
 <defs>
  <symbol id="v" overflow="visible">
   <path d="m7.2188-0.4375c-0.375 0.19922-0.76562 0.34375-1.1719 0.4375-0.39844 0.10156-0.82031 0.15625-1.2656 0.15625-1.3047 0-2.3398-0.36328-3.1094-1.0938-0.76172-0.73828-1.1406-1.7344-1.1406-2.9844s0.37891-2.2383 1.1406-2.9688c0.76953-0.72656 1.8047-1.0938 3.1094-1.0938 0.44531 0 0.86719 0.046875 1.2656 0.14062 0.40625 0.09375 0.79688 0.24219 1.1719 0.4375v1.625c-0.375-0.25781-0.74609-0.44531-1.1094-0.5625-0.36719-0.125-0.75-0.1875-1.1562-0.1875-0.71875 0-1.2891 0.23438-1.7031 0.70312-0.41797 0.46094-0.625 1.0938-0.625 1.9062s0.20703 1.4531 0.625 1.9219c0.41406 0.46094 0.98438 0.6875 1.7031 0.6875 0.40625 0 0.78906-0.054688 1.1562-0.17188 0.36328-0.125 0.73438-0.31641 1.1094-0.57812z"/>
  </symbol>
  <symbol id="c" overflow="visible">
   <path d="m5.2812-4.2812c-0.16797-0.082031-0.33594-0.14062-0.5-0.17188-0.15625-0.039063-0.32031-0.0625-0.48438-0.0625-0.49219 0-0.86719 0.15625-1.125 0.46875-0.26172 0.3125-0.39062 0.75781-0.39062 1.3281v2.7188h-1.875v-5.8906h1.875v0.96875c0.25-0.38281 0.53125-0.66406 0.84375-0.84375 0.3125-0.17578 0.6875-0.26562 1.125-0.26562 0.0625 0 0.12891 0.007812 0.20312 0.015625 0.070313 0 0.17578 0.011719 0.3125 0.03125z"/>
  </symbol>
  <symbol id="b" overflow="visible">
   <path d="m6.7812-2.9531v0.53125h-4.4062c0.050781 0.4375 0.21094 0.77344 0.48438 1 0.26953 0.21875 0.64844 0.32812 1.1406 0.32812 0.39453 0 0.80078-0.054688 1.2188-0.17188 0.41406-0.125 0.84375-0.30469 1.2812-0.54688v1.4531c-0.44922 0.16797-0.89844 0.29297-1.3438 0.375-0.4375 0.09375-0.88281 0.14062-1.3281 0.14062-1.0625 0-1.8906-0.26953-2.4844-0.8125-0.58594-0.53906-0.875-1.3008-0.875-2.2812 0-0.95703 0.28516-1.7109 0.85938-2.2656 0.58203-0.55078 1.3828-0.82812 2.4062-0.82812 0.91406 0 1.6484 0.28125 2.2031 0.84375 0.5625 0.55469 0.84375 1.2969 0.84375 2.2344zm-1.9375-0.625c0-0.36328-0.10547-0.65625-0.3125-0.875-0.21094-0.21875-0.48047-0.32812-0.8125-0.32812-0.36719 0-0.66406 0.10547-0.89062 0.3125-0.23047 0.21094-0.37109 0.50781-0.42188 0.89062z"/>
  </symbol>
  <symbol id="a" overflow="visible">
   <path d="m3.5469-2.6562c-0.39844 0-0.69531 0.070312-0.89062 0.20312-0.19922 0.13672-0.29688 0.33594-0.29688 0.59375 0 0.24219 0.078125 0.42969 0.23438 0.5625 0.16406 0.13672 0.39062 0.20312 0.67188 0.20312 0.35156 0 0.64844-0.125 0.89062-0.375 0.23828-0.25781 0.35938-0.58203 0.35938-0.96875v-0.21875zm2.875-0.70312v3.3594h-1.9062v-0.875c-0.25 0.35547-0.53125 0.61719-0.84375 0.78125-0.3125 0.16406-0.69922 0.25-1.1562 0.25-0.60547 0-1.1016-0.17578-1.4844-0.53125-0.375-0.36328-0.5625-0.82812-0.5625-1.3906 0-0.6875 0.23438-1.1914 0.70312-1.5156 0.47656-0.32031 1.2227-0.48438 2.2344-0.48438h1.1094v-0.15625c0-0.28906-0.12109-0.50391-0.35938-0.64062-0.23047-0.14453-0.59375-0.21875-1.0938-0.21875-0.39844 0-0.77344 0.042969-1.125 0.125-0.34375 0.085938-0.66406 0.20312-0.95312 0.35938v-1.4375c0.39453-0.09375 0.79688-0.16406 1.2031-0.21875 0.40625-0.050781 0.8125-0.078125 1.2188-0.078125 1.0625 0 1.8281 0.21484 2.2969 0.64062 0.47656 0.41797 0.71875 1.0938 0.71875 2.0312z"/>
  </symbol>
  <symbol id="d" overflow="visible">
   <path d="m2.9531-7.5625v1.6719h1.9531v1.3438h-1.9531v2.5c0 0.27344 0.050781 0.46094 0.15625 0.5625 0.11328 0.09375 0.33203 0.14062 0.65625 0.14062h0.96875v1.3438h-1.6094c-0.74219 0-1.2656-0.15625-1.5781-0.46875s-0.46875-0.83594-0.46875-1.5781v-2.5h-0.9375v-1.3438h0.9375v-1.6719z"/>
  </symbol>
  <symbol id="m" overflow="visible">
   <path d="m4.9062-5.0312v-3.1406h1.8906v8.1719h-1.8906v-0.85938c-0.26172 0.35547-0.54688 0.61719-0.85938 0.78125-0.3125 0.15625-0.67188 0.23438-1.0781 0.23438-0.73047 0-1.3281-0.28516-1.7969-0.85938-0.46094-0.58203-0.6875-1.3281-0.6875-2.2344s0.22656-1.6445 0.6875-2.2188c0.46875-0.58203 1.0664-0.875 1.7969-0.875 0.40625 0 0.76562 0.085938 1.0781 0.25 0.3125 0.15625 0.59766 0.40625 0.85938 0.75zm-1.2344 3.8125c0.40625 0 0.71094-0.14453 0.92188-0.4375 0.20703-0.28906 0.3125-0.71875 0.3125-1.2812s-0.10547-0.98828-0.3125-1.2812c-0.21094-0.28906-0.51562-0.4375-0.92188-0.4375s-0.71484 0.14844-0.92188 0.4375c-0.21094 0.29297-0.3125 0.71875-0.3125 1.2812s0.10156 0.99219 0.3125 1.2812c0.20703 0.29297 0.51562 0.4375 0.92188 0.4375z"/>
  </symbol>
  <symbol id="g" overflow="visible">
   <path d="m4.0312-1.2188c0.40625 0 0.71094-0.14453 0.92188-0.4375 0.21875-0.28906 0.32812-0.71875 0.32812-1.2812s-0.10938-0.98828-0.32812-1.2812c-0.21094-0.28906-0.51562-0.4375-0.92188-0.4375-0.39844 0-0.70312 0.14844-0.92188 0.4375-0.21875 0.29297-0.32812 0.71875-0.32812 1.2812 0 0.55469 0.10938 0.98047 0.32812 1.2812 0.21875 0.29297 0.52344 0.4375 0.92188 0.4375zm-1.25-3.8125c0.25781-0.34375 0.54688-0.59375 0.85938-0.75 0.32031-0.16406 0.6875-0.25 1.0938-0.25 0.72656 0 1.3203 0.29297 1.7812 0.875 0.46875 0.57422 0.70312 1.3125 0.70312 2.2188s-0.23438 1.6523-0.70312 2.2344c-0.46094 0.57422-1.0547 0.85938-1.7812 0.85938-0.40625 0-0.77344-0.085938-1.0938-0.25-0.3125-0.16406-0.60156-0.42188-0.85938-0.76562v0.85938h-1.875v-8.1719h1.875z"/>
  </symbol>
  <symbol id="l" overflow="visible">
   <path d="m0.125-5.8906h1.8906l1.5781 4 1.3438-4h1.8906l-2.4844 6.4531c-0.25 0.65625-0.54297 1.1133-0.875 1.375-0.32422 0.25781-0.75781 0.39062-1.2969 0.39062h-1.0938v-1.2344h0.59375c0.3125 0 0.53906-0.054688 0.6875-0.15625 0.14453-0.10547 0.25781-0.28906 0.34375-0.54688l0.046875-0.17188z"/>
  </symbol>
  <symbol id="k" overflow="visible">
   <path d="m0.90625-5.8906h1.875v5.8906h-1.875zm0-2.2812h1.875v1.5312h-1.875z"/>
  </symbol>
  <symbol id="u" overflow="visible">
   <path d="m3.6719-4.6562c-0.40625 0-0.71484 0.14844-0.92188 0.4375-0.21094 0.29297-0.3125 0.71875-0.3125 1.2812s0.10156 0.99219 0.3125 1.2812c0.20703 0.29297 0.51562 0.4375 0.92188 0.4375s0.71094-0.14453 0.92188-0.4375c0.20703-0.28906 0.3125-0.71875 0.3125-1.2812s-0.10547-0.98828-0.3125-1.2812c-0.21094-0.28906-0.51562-0.4375-0.92188-0.4375zm1.2344 3.7969c-0.26172 0.35547-0.54688 0.61719-0.85938 0.78125-0.3125 0.15625-0.67188 0.23438-1.0781 0.23438-0.73047 0-1.3281-0.28516-1.7969-0.85938-0.46094-0.58203-0.6875-1.3281-0.6875-2.2344s0.22656-1.6445 0.6875-2.2188c0.46875-0.57031 1.0664-0.85938 1.7969-0.85938 0.40625 0 0.76562 0.085937 1.0781 0.25 0.3125 0.15625 0.59766 0.40625 0.85938 0.75v-0.875h1.8906v8.125h-1.8906z"/>
  </symbol>
  <symbol id="f" overflow="visible">
   <path d="m0.90625-8.1719h1.875v8.1719h-1.875z"/>
  </symbol>
  <symbol id="j" overflow="visible">
   <path d="m6.8281-3.5781v3.5781h-1.8906v-2.75c0-0.5-0.015625-0.84375-0.046875-1.0312-0.023437-0.19531-0.058594-0.34375-0.10938-0.4375-0.074219-0.125-0.17188-0.21875-0.29688-0.28125-0.125-0.070312-0.27344-0.10938-0.4375-0.10938-0.39844 0-0.71094 0.15234-0.9375 0.45312-0.21875 0.30469-0.32812 0.72656-0.32812 1.2656v2.8906h-1.875v-5.8906h1.875v0.85938c0.28906-0.34375 0.59375-0.59375 0.90625-0.75 0.32031-0.16406 0.67578-0.25 1.0625-0.25 0.67578 0 1.1914 0.21094 1.5469 0.625 0.35156 0.41797 0.53125 1.0273 0.53125 1.8281z"/>
  </symbol>
  <symbol id="t" overflow="visible">
   <path d="m5.5-5.7031v1.4219c-0.39844-0.16406-0.78125-0.28906-1.1562-0.375-0.375-0.082031-0.73047-0.125-1.0625-0.125-0.36719 0-0.63672 0.046875-0.8125 0.14062-0.16797 0.085937-0.25 0.21875-0.25 0.40625 0 0.15625 0.0625 0.27734 0.1875 0.35938 0.13281 0.074219 0.375 0.13281 0.71875 0.17188l0.32812 0.046875c0.96875 0.125 1.6133 0.32812 1.9375 0.60938 0.33203 0.27344 0.5 0.71094 0.5 1.3125 0 0.625-0.23047 1.1016-0.6875 1.4219-0.46094 0.3125-1.1484 0.46875-2.0625 0.46875-0.39844 0-0.80469-0.03125-1.2188-0.09375-0.41797-0.0625-0.84375-0.15625-1.2812-0.28125v-1.4219c0.375 0.17969 0.75781 0.3125 1.1562 0.40625 0.39453 0.09375 0.79688 0.14062 1.2031 0.14062 0.36328 0 0.64062-0.050781 0.82812-0.15625 0.1875-0.10156 0.28125-0.25391 0.28125-0.45312 0-0.16406-0.0625-0.28906-0.1875-0.375-0.125-0.082031-0.38281-0.14453-0.76562-0.1875l-0.32812-0.046875c-0.84375-0.10156-1.4336-0.29688-1.7656-0.57812-0.33594-0.28906-0.5-0.72266-0.5-1.2969 0-0.625 0.21094-1.0859 0.64062-1.3906 0.42578-0.30078 1.082-0.45312 1.9688-0.45312 0.34375 0 0.70312 0.027344 1.0781 0.078125 0.38281 0.054687 0.80078 0.13672 1.25 0.25z"/>
  </symbol>
  <symbol id="i" overflow="visible">
   <path d="m0.84375-2.2969v-3.5938h1.8906v0.59375c0 0.3125-0.007813 0.71484-0.015625 1.2031v0.95312c0 0.48047 0.007812 0.82422 0.03125 1.0312 0.03125 0.21094 0.078125 0.35938 0.14062 0.45312 0.070313 0.125 0.17188 0.22656 0.29688 0.29688 0.125 0.0625 0.26562 0.09375 0.42188 0.09375 0.39453 0 0.70312-0.14844 0.92188-0.45312 0.22656-0.30078 0.34375-0.72266 0.34375-1.2656v-2.9062h1.8906v5.8906h-1.8906v-0.85938c-0.28125 0.34375-0.58594 0.60156-0.90625 0.76562-0.3125 0.16406-0.66406 0.25-1.0469 0.25-0.67969 0-1.1953-0.20703-1.5469-0.625-0.35547-0.41406-0.53125-1.0234-0.53125-1.8281z"/>
  </symbol>
  <symbol id="h" overflow="visible">
   <path d="m6.8281-3.5781v3.5781h-1.8906v-2.7344c0-0.50781-0.015625-0.85938-0.046875-1.0469-0.023437-0.19531-0.058594-0.34375-0.10938-0.4375-0.074219-0.125-0.17188-0.21875-0.29688-0.28125-0.125-0.070312-0.27344-0.10938-0.4375-0.10938-0.39844 0-0.71094 0.15234-0.9375 0.45312-0.21875 0.30469-0.32812 0.72656-0.32812 1.2656v2.8906h-1.875v-8.1719h1.875v3.1406c0.28906-0.34375 0.59375-0.59375 0.90625-0.75 0.32031-0.16406 0.67578-0.25 1.0625-0.25 0.67578 0 1.1914 0.21094 1.5469 0.625 0.35156 0.41797 0.53125 1.0273 0.53125 1.8281z"/>
  </symbol>
  <symbol id="s" overflow="visible">
   <path d="m4.7812-8.1719v1.2344h-1.0469c-0.26172 0-0.44922 0.046875-0.5625 0.14062-0.10547 0.09375-0.15625 0.26172-0.15625 0.5v0.40625h1.6094v1.3438h-1.6094v4.5469h-1.875v-4.5469h-0.9375v-1.3438h0.9375v-0.40625c0-0.64453 0.17578-1.1172 0.53125-1.4219 0.36328-0.30078 0.92188-0.45312 1.6719-0.45312z"/>
  </symbol>
  <symbol id="e" overflow="visible">
   <path d="m3.7031-4.6875c-0.41797 0-0.73438 0.15234-0.95312 0.45312-0.21875 0.30469-0.32812 0.73438-0.32812 1.2969s0.10938 0.99609 0.32812 1.2969c0.21875 0.30469 0.53516 0.45312 0.95312 0.45312 0.41406 0 0.72656-0.14844 0.9375-0.45312 0.21875-0.30078 0.32812-0.73438 0.32812-1.2969s-0.10938-0.99219-0.32812-1.2969c-0.21094-0.30078-0.52344-0.45312-0.9375-0.45312zm0-1.3438c1.0078 0 1.8008 0.27734 2.375 0.82812 0.57031 0.54297 0.85938 1.2969 0.85938 2.2656s-0.28906 1.7305-0.85938 2.2812c-0.57422 0.54297-1.3672 0.8125-2.375 0.8125-1.0117 0-1.8047-0.26953-2.375-0.8125-0.57422-0.55078-0.85938-1.3125-0.85938-2.2812s0.28516-1.7227 0.85938-2.2656c0.57031-0.55078 1.3633-0.82812 2.375-0.82812z"/>
  </symbol>
  <symbol id="r" overflow="visible">
   <path d="m6.3594-4.9062c0.23828-0.36328 0.51953-0.64062 0.84375-0.82812 0.33203-0.19531 0.69531-0.29688 1.0938-0.29688 0.66406 0 1.1758 0.21094 1.5312 0.625 0.35156 0.41797 0.53125 1.0273 0.53125 1.8281v3.5781h-1.8906v-3.0625c0.007812-0.050781 0.015625-0.097656 0.015625-0.14062v-0.21875c0-0.41406-0.0625-0.71875-0.1875-0.90625s-0.32422-0.28125-0.59375-0.28125c-0.35547 0-0.63281 0.14844-0.82812 0.4375-0.1875 0.29297-0.28906 0.71875-0.29688 1.2812v2.8906h-1.8906v-3.0625c0-0.65625-0.058594-1.0781-0.17188-1.2656-0.11719-0.1875-0.3125-0.28125-0.59375-0.28125-0.36719 0-0.64844 0.15234-0.84375 0.45312-0.19922 0.29297-0.29688 0.71484-0.29688 1.2656v2.8906h-1.8906v-5.8906h1.8906v0.85938c0.23828-0.33203 0.50391-0.58203 0.79688-0.75 0.30078-0.16406 0.63281-0.25 1-0.25 0.40625 0 0.76562 0.10156 1.0781 0.29688 0.3125 0.19922 0.54688 0.47656 0.70312 0.82812z"/>
  </symbol>
  <symbol id="q" overflow="visible">
   <path d="m0.98438-7.8438h2.2656l2.8594 5.375v-5.375h1.9062v7.8438h-2.25l-2.8594-5.3906v5.3906h-1.9219z"/>
  </symbol>
  <symbol id="p" overflow="visible">
   <path d="m0.98438-7.8438h3.3594c1 0 1.7656 0.22656 2.2969 0.67188 0.53906 0.4375 0.8125 1.0703 0.8125 1.8906 0 0.82422-0.27344 1.4609-0.8125 1.9062-0.53125 0.4375-1.2969 0.65625-2.2969 0.65625h-1.3281v2.7188h-2.0312zm2.0312 1.4688v2.1875h1.1094c0.39453 0 0.69531-0.09375 0.90625-0.28125 0.21875-0.19531 0.32812-0.46875 0.32812-0.8125 0-0.35156-0.10938-0.625-0.32812-0.8125-0.21094-0.1875-0.51172-0.28125-0.90625-0.28125z"/>
  </symbol>
  <symbol id="o" overflow="visible">
   <path d="m0.90625-5.8906h1.875v5.7812c0 0.78906-0.1875 1.3945-0.5625 1.8125-0.375 0.41406-0.92188 0.625-1.6406 0.625h-0.9375v-1.2344h0.32812c0.35156 0 0.59766-0.085938 0.73438-0.25 0.13281-0.15625 0.20312-0.47656 0.20312-0.95312zm0-2.2812h1.875v1.5312h-1.875z"/>
  </symbol>
  <symbol id="n" overflow="visible">
   <path d="m5.6562-5.7031v1.5312c-0.25-0.17578-0.50781-0.30469-0.76562-0.39062-0.26172-0.082031-0.52734-0.125-0.79688-0.125-0.53125 0-0.94531 0.15625-1.2344 0.46875-0.29297 0.30469-0.4375 0.73047-0.4375 1.2812 0 0.55469 0.14453 0.98438 0.4375 1.2969 0.28906 0.30469 0.70312 0.45312 1.2344 0.45312 0.28906 0 0.56641-0.039062 0.82812-0.125 0.26953-0.09375 0.51562-0.22656 0.73438-0.40625v1.5469c-0.29297 0.10547-0.58984 0.17969-0.89062 0.23438-0.30469 0.0625-0.60547 0.09375-0.90625 0.09375-1.0625 0-1.8984-0.26953-2.5-0.8125-0.59375-0.55078-0.89062-1.3125-0.89062-2.2812s0.29688-1.7227 0.89062-2.2656c0.60156-0.55078 1.4375-0.82812 2.5-0.82812 0.30078 0 0.60156 0.03125 0.90625 0.09375 0.30078 0.054688 0.59766 0.13281 0.89062 0.23438z"/>
  </symbol>
 </defs>
 <g>
  <path d="m0 137.04 161.54 17.23 90.461 66.77-25.848 73.23-77.535-12.922z" fill-rule="evenodd"/>
  <path d="m176.62 445.04 66.77-189.54 103.38 161.54zm81.848-230.46 193.85 40.922v-47.383l99.078 333.85-58.152 4.3086-107.69-137.85-34.461 6.4609-105.54-163.69 12.922-36.617zm193.85-19.383v-129.23l109.85 77.539-103.38 68.922-6.4609-17.23zm122.77-56 116.31 120.62 8.6172 21.539-140-6.4609-6.4609 105.54h-47.383l-47.383-165.85 116.31-75.383zm-19.383 243.38 34.461 53.848h-40.922l-32.309-21.539-8.6172-32.309zm23.691-247.69 64.617-112v114.15zm64.617 4.3086v4.3086l43.078 105.54-107.69-112 64.617 2.1523z" fill-rule="evenodd"/>
  ref="#d"/>
 </g>
</svg>
