<svg width="50" height="50" viewBox="0 0 300 353" fill="none" xmlns="http://www.w3.org/2000/svg">
<mask id="path-1-inside-1_62_381" fill="white">
<path d="M215.625 51.4251H262.5C272.446 51.4251 281.984 55.1574 289.017 61.8008C296.049 68.4443 300 77.4549 300 86.8502V317.113C300 326.509 296.049 335.519 289.017 342.163C281.984 348.806 272.446 352.538 262.5 352.538H37.5C27.5544 352.538 18.0161 348.806 10.9835 342.163C3.95088 335.519 0 326.509 0 317.113V86.8502C0 77.4549 3.95088 68.4443 10.9835 61.8008C18.0161 55.1574 27.5544 51.4251 37.5 51.4251H84.375"/>
</mask>
<path d="M215.625 32.4251C205.132 32.4251 196.625 40.9317 196.625 51.4251C196.625 61.9185 205.132 70.4251 215.625 70.4251V32.4251ZM262.5 51.4251V32.4251V51.4251ZM0 317.113H-19H0ZM37.5 51.4251V32.4251V51.4251ZM84.375 70.4251C94.8684 70.4251 103.375 61.9185 103.375 51.4251C103.375 40.9317 94.8684 32.4251 84.375 32.4251V70.4251ZM215.625 70.4251H262.5V32.4251H215.625V70.4251ZM262.5 70.4251C267.744 70.4251 272.572 72.4032 275.969 75.6125L302.064 47.9892C291.396 37.9115 277.147 32.4251 262.5 32.4251V70.4251ZM275.969 75.6125C279.33 78.7872 281 82.8542 281 86.8502H319C319 72.0555 312.769 58.1015 302.064 47.9892L275.969 75.6125ZM281 86.8502V317.113H319V86.8502H281ZM281 317.113C281 321.109 279.33 325.176 275.969 328.351L302.064 355.974C312.769 345.862 319 331.908 319 317.113H281ZM275.969 328.351C272.572 331.56 267.744 333.538 262.5 333.538V371.538C277.147 371.538 291.396 366.052 302.064 355.974L275.969 328.351ZM262.5 333.538H37.5V371.538H262.5V333.538ZM37.5 333.538C32.2556 333.538 27.4283 331.56 24.031 328.351L-2.064 355.974C8.60395 366.052 22.8532 371.538 37.5 371.538V333.538ZM24.031 328.351C20.6704 325.176 19 321.109 19 317.113H-19C-19 331.908 -12.7686 345.862 -2.064 355.974L24.031 328.351ZM19 317.113V86.8502H-19V317.113H19ZM19 86.8502C19 82.8542 20.6704 78.7872 24.031 75.6125L-2.064 47.9892C-12.7686 58.1015 -19 72.0555 -19 86.8502H19ZM24.031 75.6125C27.4283 72.4032 32.2556 70.4251 37.5 70.4251V32.4251C22.8532 32.4251 8.60395 37.9115 -2.064 47.9892L24.031 75.6125ZM37.5 70.4251H84.375V32.4251H37.5V70.4251Z" fill="#D81919" mask="url(#path-1-inside-1_62_381)"/>
<path d="M204.154 29.2677L204.154 29.2646C202.699 23.7656 199.31 18.7738 194.398 15.1497C189.477 11.5195 183.341 9.5012 176.962 9.5L204.154 29.2677ZM204.154 29.2677L212.655 61.3502H87.3399L95.8277 29.2646C95.8277 29.2644 95.8278 29.2642 95.8278 29.264M204.154 29.2677L95.8278 29.264M95.8278 29.264C97.283 23.7652 100.671 18.7737 105.583 15.1497M95.8278 29.264L105.583 15.1497M105.583 15.1497C110.504 11.5195 116.64 9.5012 123.019 9.5M105.583 15.1497L123.019 9.5M123.019 9.5C123.019 9.5 123.02 9.5 123.02 9.5M123.019 9.5H123.02M123.02 9.5H176.961H123.02Z" stroke="#D81919" stroke-width="19" stroke-linecap="round" stroke-linejoin="round"/>
<path d="M93.75 242.976H206.25M93.75 172.125H206.25H93.75Z" stroke="#D81919" stroke-width="19" stroke-linecap="round"/>
</svg>
