<?xml version="1.0" encoding="UTF-8"?>
<svg width="50pt" height="50pt" version="1.1" viewBox="0 0 700 700" xmlns="http://www.w3.org/2000/svg" xmlns:xlink="http://www.w3.org/1999/xlink">
 <g>
  <path d="m212.39 303.5-139.08 232.32 224.3-200.08 0.19141-0.17188 33.086-29.508c-39.512-0.84766-79.004-1.6914-118.52-2.5391zm199.54-80.871 158.55-55.574-162.57 38.57 4.0195 16.984zm235.21-78.234c0.67188 1.9219-0.23047 4-2.0195 4.8672l-182.52 97.145-9.9453 54.477 11.793 98.551c0 1.5977-0.21094 2.4062-1.2891 3.4258-1.1719 1-2.6367 1.3086-4.0977 0.75l-157.91-60.422-241.94 215.82c-3.1562 2.8086-7.9062-0.67188-6.2695-4.5195l76.121-218.49c0.28906-1.0781 1.0195-2.0195 2.0977-2.5195l75.543-36.781c1.5586-0.65234 3.0781-1.1367 4.7891-1.0781l2.7695 0.058594-92.375-125.81c-0.21094-0.28906-0.36719-0.57812-0.5-0.88672l-64.422-163.53c-1.6562-4.2305 4.0195-7.4258 6.8086-3.8867l173.63 204.54 7.1758-34.895c0.28906-1.3281 1.2305-2.4609 2.5391-2.9258 1.3281-0.46094 2.7891-0.21094 3.8477 0.67188l71.773 54.594-6.8867-113.27c-0.11719-2.0586 1.3477-3.8477 3.3672-4.1367l25.43-3.9258 19.793-6.7539c1.5977-0.63672 3.4805-0.17188 4.5977 1.25l60.441 77.793c2.5977 3.3672-1.25 7.9648-5.0977 5.8477l-25.855-14.062 7.5234 31.664 236.42-56.094c1.9414-0.44141 3.9805 0.63672 4.6367 2.5586zm-51.363 22.18-182 63.789 2.4609 10.348 41.82-0.84766 137.71-73.312zm-145.35 102.65-18.793 36.453 5.7344 24.105 15.562 39.781-8.1758-68.309c-0.058594-0.5-0.019531-1 0.11719-1.4805l5.5781-30.547zm-21.582 24.621 23.699-45.977-34.434 0.69141zm1.0977 38.703c-0.058594-0.11719-0.097656-0.25-0.13281-0.38281l-86.738-221.72-19.082 2.9258 10.062 165.2 42.727 24.219c0.44141 0.25 0.82812 0.57812 1.1172 0.96094l71.234 77.832-19.199-49.055zm-13.293-55.691-27.449-115.69-22.621-12.332 50.074 128.02zm-22.391-121.94c0.19141 0.078125 0.38281 0.19141 0.57813 0.30859l2.2109 1.2109-41.859-36.723 6.9258 17.699 32.164 17.504zm-29.738-51.152-11.176 3.8281 44.457 38.992zm-41.109 130.12-54.785-41.668 56.883 75.832-2.0781-34.164zm-73.887-47.379c-7.4844 36.473-14.984 72.926-22.469 109.4l62.27 1.3477zm-29.375 103.72 15.273-74.352-162.3-191.18 55.496 140.85 91.547 124.67zm106.84-7.0391-65.906-87.875 36.684 102.09 43.07 0.92188h0.73828l14.332 1.6719-27.605-15.641c-0.53906-0.30859-0.98047-0.71094-1.3086-1.2109zm-19.141 54.035 138.5 52.996-73.426-80.219-30.566-3.5586-34.512 30.777zm-171.73 2.6172-63.078 181.05 127.02-212.18z"/>
  <use x="52.628906" y="588.855469" xlink:href="#v"/>
  <use x="59.6875" y="588.855469" xlink:href="#c"/>
  <use x="64.429688" y="588.855469" xlink:href="#a"/>
  <use x="70.953125" y="588.855469" xlink:href="#e"/>
  <use x="77.445312" y="588.855469" xlink:href="#b"/>
  <use x="82.042969" y="588.855469" xlink:href="#a"/>
  <use x="88.566406" y="588.855469" xlink:href="#m"/>
  <use x="98.800781" y="588.855469" xlink:href="#l"/>
  <use x="105.683594" y="588.855469" xlink:href="#k"/>
  <use x="115.304688" y="588.855469" xlink:href="#j"/>
  <use x="122.632812" y="588.855469" xlink:href="#i"/>
  <use x="125.933594" y="588.855469" xlink:href="#u"/>
  <use x="131.65625" y="588.855469" xlink:href="#h"/>
  <use x="141.679688" y="588.855469" xlink:href="#i"/>
  <use x="144.976562" y="588.855469" xlink:href="#g"/>
  <use x="148.273438" y="588.855469" xlink:href="#g"/>
  <use x="151.570312" y="588.855469" xlink:href="#e"/>
  <use x="158.058594" y="588.855469" xlink:href="#f"/>
  <use x="52.628906" y="598.472656" xlink:href="#t"/>
  <use x="56.8125" y="598.472656" xlink:href="#c"/>
  <use x="61.558594" y="598.472656" xlink:href="#d"/>
  <use x="68.164062" y="598.472656" xlink:href="#h"/>
  <use x="81.535156" y="598.472656" xlink:href="#b"/>
  <use x="86.132812" y="598.472656" xlink:href="#f"/>
  <use x="92.980469" y="598.472656" xlink:href="#a"/>
  <use x="102.851562" y="598.472656" xlink:href="#s"/>
  <use x="110.902344" y="598.472656" xlink:href="#d"/>
  <use x="117.511719" y="598.472656" xlink:href="#r"/>
  <use x="124.359375" y="598.472656" xlink:href="#q"/>
  <use x="134.554688" y="598.472656" xlink:href="#p"/>
  <use x="141.605469" y="598.472656" xlink:href="#c"/>
  <use x="146.347656" y="598.472656" xlink:href="#d"/>
  <use x="152.957031" y="598.472656" xlink:href="#o"/>
  <use x="156.253906" y="598.472656" xlink:href="#a"/>
  <use x="162.777344" y="598.472656" xlink:href="#n"/>
  <use x="168.476562" y="598.472656" xlink:href="#b"/>
 </g>
</svg>
