<svg width="16" height="16" viewBox="0 0 16 16" fill="none" xmlns="http://www.w3.org/2000/svg">
<path d="M10.613 0C7.55776 0 5.14571 2.39998 5.14571 5.43997C5.14571 6.55993 5.46729 7.60001 6.11059 8.47995C5.30657 8.23999 4.26141 8.39993 3.61811 9.04L0.723657 11.92C-0.241219 12.88 -0.241219 14.4 0.723657 15.28C1.68853 16.24 3.21613 16.24 4.10052 15.28L6.99497 12.4C7.63813 11.76 7.87942 10.8 7.55784 9.91997C8.44229 10.48 9.40702 10.8 10.5327 10.8C13.5076 10.8 16 8.40001 16 5.36002C15.9999 2.40004 13.5878 5.71425e-05 10.6131 5.71425e-05L10.613 0ZM5.94973 11.2799L3.05527 14.1599C2.73369 14.4799 2.25126 14.4799 1.92968 14.1599C1.6081 13.8399 1.6081 13.3599 1.92968 13.0399L4.82413 10.16C5.14571 9.84 5.62815 9.84 5.94973 10.16C6.2713 10.4799 6.2713 10.96 5.94973 11.2799ZM10.613 9.19991C8.52255 9.19991 6.75374 7.5199 6.75374 5.35994C6.75374 3.27992 8.4422 1.51996 10.613 1.51996C12.7034 1.59987 14.4723 3.27989 14.4723 5.43994C14.4723 7.51995 12.7034 9.19991 10.613 9.19991Z" fill="white"/>
</svg>
