<?xml version="1.0" encoding="UTF-8"?>
<svg width="50pt" height="50pt" version="1.1" viewBox="0 0 700 700" xmlns="http://www.w3.org/2000/svg">
 <path d="m534.66 542.5c-4.6406 0-9.0898-1.8438-12.371-5.1289l-238.25-238.23c-36.418 13.754-76.832 12.316-112.18-3.9961-35.348-16.309-62.668-46.125-75.836-82.758-13.164-36.633-11.074-77.02 5.8008-112.1 2.4766-5.1016 7.2695-8.6914 12.863-9.625 5.5781-0.89062 11.25 0.92188 15.277 4.8828l72.852 72.852 35.578-35.578-72.852-72.852c-4.0117-4.0039-5.8359-9.7031-4.8945-15.293 0.94141-5.5898 4.5312-10.379 9.6367-12.848 27.117-13.055 57.629-17.344 87.297-12.277 29.668 5.0664 57.023 19.242 78.27 40.559 19.781 19.742 33.441 44.777 39.34 72.094 5.8984 27.32 3.7812 55.758-6.0898 81.906l238.26 238.18c3.2812 3.2812 5.125 7.7305 5.125 12.371s-1.8438 9.0898-5.125 12.371l-60.34 60.34c-3.2812 3.2852-7.7305 5.1289-12.371 5.1289zm-246.63-281.63c4.6406 0.003906 9.0938 1.8477 12.375 5.1289l234.25 234.25 35.594-35.594-234.25-234.25c-2.5703-2.5703-4.2773-5.8789-4.8828-9.4648-0.60547-3.582-0.078126-7.2656 1.5039-10.539 11.902-24.922 14.023-53.402 5.9453-79.812-8.0742-26.414-25.762-48.836-49.562-62.844-23.805-14.008-51.992-18.578-79.004-12.812l65.52 65.52c3.2812 3.2812 5.125 7.7305 5.125 12.371s-1.8438 9.0898-5.125 12.375l-60.27 60.32c-3.2812 3.2812-7.7305 5.125-12.371 5.125s-9.0938-1.8438-12.375-5.125l-65.57-65.52c-5.7656 27.012-1.1953 55.199 12.812 79.004 14.008 23.801 36.43 41.488 62.844 49.562 26.41 8.0781 54.891 5.957 79.812-5.9453 2.375-1.1562 4.9883-1.7539 7.6289-1.75z"/>
</svg>
