<?xml version="1.0" encoding="UTF-8"?>
<svg width="350pt" height="350pt" version="1.1" viewBox="0 0 700 700" xmlns="http://www.w3.org/2000/svg" xmlns:xlink="http://www.w3.org/1999/xlink">
 <g>
  <path d="m618.45 554.89c1.3359 3.6953-3.2031 6.7422-6.1094 4.1016l-266.09-207.94-57.07 43.988c-1.8828 1.5156-4.6484 1.0039-5.793-1.1797l-118.52-203.68-77.734 58.863c-3.1172 2.2695-8.0977-0.47656-5.6523-4.8594l56.82-109.84c1.3008-2.5352 4.8242-2.7461 6.4414-0.47656l17.973 23.375 28.656 4.8242c0.73828 0.14062 1.3711 0.42188 1.9375 0.93359l38.551 32.863-54.711-133.5c-0.49219-1.0039-0.54688-2.2188-0.035157-3.3086 0.89844-1.8828 3.168-2.6914 5.0508-1.7969l251.32 119.96c1.2656 0.61719 2.1484 1.918 2.1484 3.4141l0.035156 35.418 0.35156 0.40625 176.27-214.89c2.5703-3.5742 8.2188-0.54688 6.6172 3.5898l-63.492 161.1c-0.10547 0.30078-0.24609 0.58203-0.42187 0.86328l-70.641 104.67 12.48 14.293 40.469 15.172c1.1445 0.35156 2.1133 1.25 2.4805 2.4805l78.648 251.14zm-267.48-367.09-161.91-116.36 55.254 134.84c0.035156 0.089844 0.070312 0.19531 0.10547 0.28125l36.684 31.281 69.867-50.062zm-133.71-105.39 140.19 100.74 28.445-20.242-168.62-80.496zm145.88 106-76.078 54.516 16.387 13.977zm28.5-22.762 36.473 41.773-0.019531-24.363-36.457-17.41zm-104.05 119.43 126.21-29.379c0.86328-0.23047 1.7773-0.16016 2.6055 0.23047l65.52 24.574c-31.543-36.102-63.07-72.207-94.617-108.31-33.059 37.934-65.344 76.184-99.703 112.91zm153.48-62.844 38.129 43.656 69.285-102.68 54.551-138.41-161.96 197.43zm157.34 316.25-185.29-274.85-128.22 29.855c104.51 81.66 209 163.34 313.51 245zm-173.85-271.45 178.97 265.49-70.395-224.77c-36.191-13.57-72.383-27.145-108.57-40.715zm-84.457 79.176-59.094-46.172 8.8203 84.934zm-67.508-54.039c-0.21094-1.3008 0.28125-2.5859 1.2148-3.4141l24.574-26.262-97.871-83.457 79.898 188.39-7.7969-75.254zm-101.64-106.64 88.91 152.81-70.656-166.61-18.254 13.816zm-68.934 35.434 53.723-60.43-13.43-17.461-40.293 77.895zm60.078-56.172-48.883 54.992 68.301-51.734-19.414-3.2578z"/>
  <use x="80.816406" y="586.40625" xlink:href="#v"/>
  <use x="87.277344" y="586.40625" xlink:href="#c"/>
  <use x="91.617188" y="586.40625" xlink:href="#a"/>
  <use x="97.585938" y="586.40625" xlink:href="#e"/>
  <use x="103.523438" y="586.40625" xlink:href="#b"/>
  <use x="107.734375" y="586.40625" xlink:href="#a"/>
  <use x="113.703125" y="586.40625" xlink:href="#m"/>
  <use x="123.066406" y="586.40625" xlink:href="#l"/>
  <use x="129.367188" y="586.40625" xlink:href="#k"/>
  <use x="138.167969" y="586.40625" xlink:href="#j"/>
  <use x="144.875" y="586.40625" xlink:href="#i"/>
  <use x="147.894531" y="586.40625" xlink:href="#u"/>
  <use x="153.132812" y="586.40625" xlink:href="#h"/>
  <use x="162.304688" y="586.40625" xlink:href="#i"/>
  <use x="165.320312" y="586.40625" xlink:href="#g"/>
  <use x="168.335938" y="586.40625" xlink:href="#g"/>
  <use x="171.355469" y="586.40625" xlink:href="#e"/>
  <use x="177.292969" y="586.40625" xlink:href="#f"/>
  <use x="80.816406" y="595.207031" xlink:href="#t"/>
  <use x="84.644531" y="595.207031" xlink:href="#c"/>
  <use x="88.988281" y="595.207031" xlink:href="#d"/>
  <use x="95.035156" y="595.207031" xlink:href="#h"/>
  <use x="107.269531" y="595.207031" xlink:href="#b"/>
  <use x="111.476562" y="595.207031" xlink:href="#f"/>
  <use x="117.742188" y="595.207031" xlink:href="#a"/>
  <use x="126.773438" y="595.207031" xlink:href="#s"/>
  <use x="134.140625" y="595.207031" xlink:href="#d"/>
  <use x="140.1875" y="595.207031" xlink:href="#r"/>
  <use x="146.453125" y="595.207031" xlink:href="#q"/>
  <use x="155.785156" y="595.207031" xlink:href="#p"/>
  <use x="162.234375" y="595.207031" xlink:href="#c"/>
  <use x="166.574219" y="595.207031" xlink:href="#d"/>
  <use x="172.621094" y="595.207031" xlink:href="#o"/>
  <use x="175.636719" y="595.207031" xlink:href="#a"/>
  <use x="181.609375" y="595.207031" xlink:href="#n"/>
  <use x="186.824219" y="595.207031" xlink:href="#b"/>
 </g>
</svg>
